<svg xmlns="http://www.w3.org/2000/svg" xmlns:xlink="http://www.w3.org/1999/xlink" contentStyleType="text/css" height="230px" preserveAspectRatio="none" style="width:4172px;height:230px;background:#FFFFFF;" version="1.1" viewBox="0 0 4172 230" width="4172px" zoomAndPan="magnify"><defs/><g><!--entity Cliente--><g id="elem_Cliente"><ellipse cx="2842.7018" cy="14" fill="#F1F1F1" rx="8" ry="8" style="stroke:#181818;stroke-width:0.5;"/><path d="M2842.7018,22 L2842.7018,49 M2829.7018,30 L2855.7018,30 M2842.7018,49 L2829.7018,64 M2842.7018,49 L2855.7018,64 " fill="none" style="stroke:#181818;stroke-width:0.5;"/><text fill="#000000" font-family="sans-serif" font-size="14" lengthAdjust="spacing" textLength="49.1436" x="2818.13" y="78.4951">Cliente</text></g><g id="elem_Crear cuenta"><ellipse cx="2885.6987" cy="191.4597" fill="#F1F1F1" rx="69.3487" ry="16.2697" style="stroke:#181818;stroke-width:0.5;"/><text fill="#000000" font-family="sans-serif" font-size="14" lengthAdjust="spacing" textLength="91.0547" x="2837.1714" y="195.2073">Crear cuenta</text></g><g id="elem_Iniciar sesi&#243;n"><ellipse cx="3059.6992" cy="191.4638" fill="#F1F1F1" rx="69.6192" ry="16.3238" style="stroke:#181818;stroke-width:0.5;"/><text fill="#000000" font-family="sans-serif" font-size="14" lengthAdjust="spacing" textLength="91.793" x="3010.8027" y="195.2114">Iniciar sesi&#243;n</text></g><g id="elem_Recuperar contrase&#241;a"><ellipse cx="3260.7015" cy="191.4563" fill="#F1F1F1" rx="96.0315" ry="21.6063" style="stroke:#181818;stroke-width:0.5;"/><text fill="#000000" font-family="sans-serif" font-size="14" lengthAdjust="spacing" textLength="155.2715" x="3183.0658" y="194.303">Recuperar contrase&#241;a</text></g><g id="elem_Ver medicamentos"><ellipse cx="1270.7033" cy="191.4607" fill="#F1F1F1" rx="85.8033" ry="19.5607" style="stroke:#181818;stroke-width:0.5;"/><text fill="#000000" font-family="sans-serif" font-size="14" lengthAdjust="spacing" textLength="132.1729" x="1204.6168" y="194.3073">Ver medicamentos</text></g><g id="elem_Rastrear pedido"><ellipse cx="3468.7027" cy="191.4585" fill="#F1F1F1" rx="77.3427" ry="17.8685" style="stroke:#181818;stroke-width:0.5;"/><text fill="#000000" font-family="sans-serif" font-size="14" lengthAdjust="spacing" textLength="111.9727" x="3409.9914" y="195.1344">Rastrear pedido</text></g><g id="elem_Ver mi kit mensual"><ellipse cx="2235.6986" cy="191.4617" fill="#F1F1F1" rx="85.7586" ry="19.5517" style="stroke:#181818;stroke-width:0.5;"/><text fill="#000000" font-family="sans-serif" font-size="14" lengthAdjust="spacing" textLength="132.0703" x="2169.6635" y="194.3084">Ver mi kit mensual</text></g><g id="elem_Ver boticas"><ellipse cx="306.6974" cy="191.4615" fill="#F1F1F1" rx="65.0074" ry="15.4015" style="stroke:#181818;stroke-width:0.5;"/><text fill="#000000" font-family="sans-serif" font-size="14" lengthAdjust="spacing" textLength="78.7979" x="264.2985" y="195.209">Ver boticas</text></g><g id="elem_Buscar boticas"><ellipse cx="79.7018" cy="191.4604" fill="#F1F1F1" rx="73.7018" ry="17.1404" style="stroke:#181818;stroke-width:0.5;"/><text fill="#000000" font-family="sans-serif" font-size="14" lengthAdjust="spacing" textLength="102.6553" x="25.3742" y="195.2079">Buscar boticas</text></g><g id="elem_Buscar medicamentos"><ellipse cx="999.7027" cy="191.4645" fill="#F1F1F1" rx="96.3727" ry="21.6745" style="stroke:#181818;stroke-width:0.5;"/><text fill="#000000" font-family="sans-serif" font-size="14" lengthAdjust="spacing" textLength="156.0303" x="921.6876" y="194.3112">Buscar medicamentos</text></g><g id="elem_Filtrar medicamentos"><ellipse cx="500.698" cy="191.4616" fill="#F1F1F1" rx="93.508" ry="21.1016" style="stroke:#181818;stroke-width:0.5;"/><text fill="#000000" font-family="sans-serif" font-size="14" lengthAdjust="spacing" textLength="149.6387" x="425.8786" y="194.3083">Filtrar medicamentos</text></g><g id="elem_Ver detalles de medicamento"><ellipse cx="748.6957" cy="191.4631" fill="#F1F1F1" rx="119.6157" ry="26.3231" style="stroke:#181818;stroke-width:0.5;"/><text fill="#000000" font-family="sans-serif" font-size="14" lengthAdjust="spacing" textLength="206.5342" x="645.4286" y="194.3098">Ver detalles de medicamento</text></g><g id="elem_Buscar productos dentro de una botica"><ellipse cx="3732.6986" cy="191.4597" fill="#F1F1F1" rx="151.2986" ry="32.6597" style="stroke:#181818;stroke-width:0.5;"/><text fill="#000000" font-family="sans-serif" font-size="14" lengthAdjust="spacing" textLength="273.1846" x="3596.1064" y="194.3064">Buscar productos dentro de una botica</text></g><g id="elem_Suscribirme al kit"><ellipse cx="1741.7002" cy="191.462" fill="#F1F1F1" rx="81.4602" ry="18.692" style="stroke:#181818;stroke-width:0.5;"/><text fill="#000000" font-family="sans-serif" font-size="14" lengthAdjust="spacing" textLength="122.0352" x="1679.5533" y="194.6803">Suscribirme al kit</text></g><g id="elem_Subir receta m&#233;dica"><ellipse cx="1481.7006" cy="191.4561" fill="#F1F1F1" rx="89.7806" ry="20.3561" style="stroke:#181818;stroke-width:0.5;"/><text fill="#000000" font-family="sans-serif" font-size="14" lengthAdjust="spacing" textLength="141.2441" x="1411.0785" y="194.3028">Subir receta m&#233;dica</text></g><g id="elem_Editar medicamentos en mi kit"><ellipse cx="4042.6973" cy="191.4575" fill="#F1F1F1" rx="123.8373" ry="27.1675" style="stroke:#181818;stroke-width:0.5;"/><text fill="#000000" font-family="sans-serif" font-size="14" lengthAdjust="spacing" textLength="215.5234" x="3934.9356" y="194.3041">Editar medicamentos en mi kit</text></g><g id="elem_Cancelar mi suscripci&#243;n"><ellipse cx="1959.7044" cy="191.4589" fill="#F1F1F1" rx="101.2944" ry="22.6589" style="stroke:#181818;stroke-width:0.5;"/><text fill="#000000" font-family="sans-serif" font-size="14" lengthAdjust="spacing" textLength="166.9063" x="1876.2513" y="194.3056">Cancelar mi suscripci&#243;n</text></g><g id="elem_Ver mi perfil"><ellipse cx="2713.7038" cy="191.4588" fill="#F1F1F1" rx="67.6438" ry="15.9288" style="stroke:#181818;stroke-width:0.5;"/><text fill="#000000" font-family="sans-serif" font-size="14" lengthAdjust="spacing" textLength="86.3379" x="2667.5349" y="195.2063">Ver mi perfil</text></g><g id="elem_Editar datos personales"><ellipse cx="2456.6965" cy="191.4633" fill="#F1F1F1" rx="100.6665" ry="22.5333" style="stroke:#181818;stroke-width:0.5;"/><text fill="#000000" font-family="sans-serif" font-size="14" lengthAdjust="spacing" textLength="165.5254" x="2373.9338" y="194.31">Editar datos personales</text></g><!--link Cliente to Crear cuenta--><g id="link_Cliente_Crear cuenta"><path d="M2853.78,82.2 C2862.63,112.24 2872.9136,147.0948 2879.3836,169.0448 " fill="none" id="Cliente-to-Crear cuenta" style="stroke:#181818;stroke-width:1.0;"/><polygon fill="#181818" points="2881.08,174.8,2882.3722,165.0363,2879.6663,170.004,2874.6986,167.2982,2881.08,174.8" style="stroke:#181818;stroke-width:1.0;"/></g><!--link Cliente to Iniciar sesi?n--><g id="link_Cliente_Iniciar sesi&#243;n"><path d="M2867.59,61.38 C2910.34,90.1 2992.05,145.0035 3032.72,172.3335 " fill="none" id="Cliente-to-Iniciar sesi&#243;n" style="stroke:#181818;stroke-width:1.0;"/><polygon fill="#181818" points="3037.7,175.68,3032.461,167.3402,3033.55,172.8912,3027.9989,173.9802,3037.7,175.68" style="stroke:#181818;stroke-width:1.0;"/></g><!--link Cliente to Recuperar contrase?a--><g id="link_Cliente_Recuperar contrase&#241;a"><path d="M2867.6,53.34 C2934.56,76.69 3113.8747,139.2439 3204.1547,170.7339 " fill="none" id="Cliente-to-Recuperar contrase&#241;a" style="stroke:#181818;stroke-width:1.0;"/><polygon fill="#181818" points="3209.82,172.71,3202.6395,165.9691,3205.0989,171.0633,3200.0047,173.5227,3209.82,172.71" style="stroke:#181818;stroke-width:1.0;"/></g><!--link Cliente to Ver medicamentos--><g id="link_Cliente_Ver medicamentos"><path d="M2817.8,44.62 C2606.78,44.44 1124.52,45.53 1060.7,111.8 C1055.46,117.24 1056.17,122.75 1060.7,128.8 C1077.87,151.73 1141.7457,167.9087 1196.2057,178.2687 " fill="none" id="Cliente-to-Ver medicamentos" style="stroke:#181818;stroke-width:1.0;"/><polygon fill="#181818" points="1202.1,179.39,1194.0061,173.7785,1197.1881,178.4556,1192.511,181.6376,1202.1,179.39" style="stroke:#181818;stroke-width:1.0;"/></g><!--link Cliente to Rastrear pedido--><g id="link_Cliente_Rastrear pedido"><path d="M2867.6,48.95 C2944.04,62.38 3181.82,105.81 3374.7,158.8 C3392.64,163.73 3406.5019,168.1621 3423.0919,173.9221 " fill="none" id="Cliente-to-Rastrear pedido" style="stroke:#181818;stroke-width:1.0;"/><polygon fill="#181818" points="3428.76,175.89,3421.5698,169.1594,3424.0366,174.25,3418.9459,176.7168,3428.76,175.89" style="stroke:#181818;stroke-width:1.0;"/></g><!--link Cliente to Ver mi kit mensual--><g id="link_Cliente_Ver mi kit mensual"><path d="M2818.03,48.17 C2759.39,56.78 2607.25,80.48 2482.7,111.8 C2410.91,129.85 2335.0515,155.2033 2285.9515,172.4333 " fill="none" id="Cliente-to-Ver mi kit mensual" style="stroke:#181818;stroke-width:1.0;"/><polygon fill="#181818" points="2280.29,174.42,2290.1068,175.2143,2285.0079,172.7644,2287.4578,167.6656,2280.29,174.42" style="stroke:#181818;stroke-width:1.0;"/></g><!--link Cliente to Ver boticas--><g id="link_Cliente_Ver boticas"><path d="M2817.67,45.27 C2658.53,49.28 1771.71,72.58 1049.7,111.8 C756.06,127.75 676.83,95.27 389.7,158.8 C371.03,162.93 356.4908,168.1405 340.7708,174.8305 " fill="none" id="Cliente-to-Ver boticas" style="stroke:#181818;stroke-width:1.0;"/><polygon fill="#181818" points="335.25,177.18,345.0976,177.3363,339.8507,175.2221,341.9649,169.9752,335.25,177.18" style="stroke:#181818;stroke-width:1.0;"/></g><!--link Buscar boticas to Ver boticas--><g id="link_Buscar boticas_Ver boticas"><path d="M153.72,191.46 C181.92,191.46 207.84,191.46 235.2,191.46 " fill="none" id="Buscar boticas-to-Ver boticas" style="stroke:#181818;stroke-width:1.0;stroke-dasharray:7.0,7.0;"/><polygon fill="#181818" points="241.2,191.46,232.2,187.46,236.2,191.46,232.2,195.46,241.2,191.46" style="stroke:#181818;stroke-width:1.0;"/><text fill="#000000" font-family="sans-serif" font-size="13" lengthAdjust="spacing" textLength="52.0508" x="171.55" y="184.5269">extends</text></g><!--link Buscar medicamentos to Ver medicamentos--><g id="link_Buscar medicamentos_Ver medicamentos"><path d="M1096.39,191.46 C1125.12,191.46 1150.39,191.46 1178.41,191.46 " fill="none" id="Buscar medicamentos-to-Ver medicamentos" style="stroke:#181818;stroke-width:1.0;stroke-dasharray:7.0,7.0;"/><polygon fill="#181818" points="1184.41,191.46,1175.41,187.46,1179.41,191.46,1175.41,195.46,1184.41,191.46" style="stroke:#181818;stroke-width:1.0;"/><text fill="#000000" font-family="sans-serif" font-size="13" lengthAdjust="spacing" textLength="52.0508" x="1114.49" y="184.5269">extends</text></g><!--link Filtrar medicamentos to Ver medicamentos--><g id="link_Filtrar medicamentos_Ver medicamentos"><path d="M552.93,173.54 C571.3,167.92 592.22,162.28 611.7,158.8 C839.73,118.06 900.2,131.47 1131.7,123.66 C1155.69,122.85 1163.05,115.73 1185.7,123.66 C1212.96,133.2 1233.8533,151.2135 1249.5833,167.6635 " fill="none" id="Filtrar medicamentos-to-Ver medicamentos" style="stroke:#181818;stroke-width:1.0;stroke-dasharray:7.0,7.0;"/><polygon fill="#181818" points="1253.73,172,1250.401,162.7308,1250.2744,168.3863,1244.619,168.2597,1253.73,172" style="stroke:#181818;stroke-width:1.0;"/><text fill="#000000" font-family="sans-serif" font-size="13" lengthAdjust="spacing" textLength="52.0508" x="1132.7" y="124.8669">extends</text></g><!--link Ver detalles de medicamento to Ver medicamentos--><g id="link_Ver detalles de medicamento_Ver medicamentos"><path d="M804.08,167.74 C878.01,139.23 1012.84,98.2 1126.7,123.66 C1168.63,133.04 1207.5911,152.9933 1235.7711,169.6033 " fill="none" id="Ver detalles de medicamento-to-Ver medicamentos" style="stroke:#181818;stroke-width:1.0;stroke-dasharray:7.0,7.0;"/><polygon fill="#181818" points="1240.94,172.65,1235.2178,164.634,1236.6326,170.1111,1231.1555,171.5259,1240.94,172.65" style="stroke:#181818;stroke-width:1.0;"/><text fill="#000000" font-family="sans-serif" font-size="13" lengthAdjust="spacing" textLength="52.0508" x="1073.7" y="124.8669">extends</text></g><!--link Buscar productos dentro de una botica to Ver boticas--><g id="link_Buscar productos dentro de una botica_Ver boticas"><path d="M3625.35,168.1 C3604.97,164.41 3583.74,161.07 3563.7,158.8 C3113.42,107.84 2997.79,131.47 2544.7,123.66 C2305.26,119.53 624.6,112.21 389.7,158.8 C370.87,162.54 356.2868,167.8696 340.5968,174.8896 " fill="none" id="Buscar productos dentro de una botica-to-Ver boticas" style="stroke:#181818;stroke-width:1.0;stroke-dasharray:7.0,7.0;"/><polygon fill="#181818" points="335.12,177.34,344.9688,177.3156,339.684,175.298,341.7016,170.0132,335.12,177.34" style="stroke:#181818;stroke-width:1.0;"/><text fill="#000000" font-family="sans-serif" font-size="13" lengthAdjust="spacing" textLength="52.0508" x="2491.7" y="124.8669">extends</text></g><!--link Cliente to Suscribirme al kit--><g id="link_Cliente_Suscribirme al kit"><path d="M2817.95,44.62 C2608.24,44.49 1135.12,45.93 1071.7,111.8 C1066.46,117.24 1066.52,123.31 1071.7,128.8 C1111.19,170.65 1531.65,151.28 1588.7,158.8 C1621.65,163.14 1652.2377,169.2569 1681.2977,175.8269 " fill="none" id="Cliente-to-Suscribirme al kit" style="stroke:#181818;stroke-width:1.0;"/><polygon fill="#181818" points="1687.15,177.15,1679.2536,171.2638,1682.2731,176.0474,1677.4895,179.0669,1687.15,177.15" style="stroke:#181818;stroke-width:1.0;"/></g><!--link Subir receta m?dica to Suscribirme al kit--><g id="link_Subir receta m&#233;dica_Suscribirme al kit"><path d="M1571.91,191.46 C1600.51,191.46 1625.95,191.46 1653.93,191.46 " fill="none" id="Subir receta m&#233;dica-to-Suscribirme al kit" style="stroke:#181818;stroke-width:1.0;stroke-dasharray:7.0,7.0;"/><polygon fill="#181818" points="1659.93,191.46,1650.93,187.46,1654.93,191.46,1650.93,195.46,1659.93,191.46" style="stroke:#181818;stroke-width:1.0;"/><text fill="#000000" font-family="sans-serif" font-size="13" lengthAdjust="spacing" textLength="52.0508" x="1589.86" y="184.5269">extends</text></g><!--link Cliente to Editar medicamentos en mi kit--><g id="link_Cliente_Editar medicamentos en mi kit"><path d="M2867.47,46.28 C2984.24,54.16 3491.22,90.82 3901.7,158.8 C3921.13,162.02 3936.0418,164.9432 3955.5118,169.2532 " fill="none" id="Cliente-to-Editar medicamentos en mi kit" style="stroke:#181818;stroke-width:1.0;"/><polygon fill="#181818" points="3961.37,170.55,3953.4473,164.6993,3956.4882,169.4693,3951.7182,172.5102,3961.37,170.55" style="stroke:#181818;stroke-width:1.0;"/></g><!--link Cancelar mi suscripci?n to Ver mi kit mensual--><g id="link_Cancelar mi suscripci&#243;n_Ver mi kit mensual"><path d="M2061.3,191.46 C2090.35,191.46 2115.72,191.46 2143.73,191.46 " fill="none" id="Cancelar mi suscripci&#243;n-to-Ver mi kit mensual" style="stroke:#181818;stroke-width:1.0;stroke-dasharray:7.0,7.0;"/><polygon fill="#181818" points="2149.73,191.46,2140.73,187.46,2144.73,191.46,2140.73,195.46,2149.73,191.46" style="stroke:#181818;stroke-width:1.0;"/><text fill="#000000" font-family="sans-serif" font-size="13" lengthAdjust="spacing" textLength="52.0508" x="2079.47" y="184.5269">extends</text></g><!--link Cliente to Ver mi perfil--><g id="link_Cliente_Ver mi perfil"><path d="M2817.83,72.77 C2790.74,103.38 2752.3944,146.7151 2731.0144,170.8951 " fill="none" id="Cliente-to-Ver mi perfil" style="stroke:#181818;stroke-width:1.0;"/><polygon fill="#181818" points="2727.04,175.39,2735.9982,171.2972,2730.352,171.6442,2730.005,165.998,2727.04,175.39" style="stroke:#181818;stroke-width:1.0;"/></g><!--link Editar datos personales to Ver mi perfil--><g id="link_Editar datos personales_Ver mi perfil"><path d="M2557.54,191.46 C2587.07,191.46 2612.65,191.46 2639.62,191.46 " fill="none" id="Editar datos personales-to-Ver mi perfil" style="stroke:#181818;stroke-width:1.0;stroke-dasharray:7.0,7.0;"/><polygon fill="#181818" points="2645.62,191.46,2636.62,187.46,2640.62,191.46,2636.62,195.46,2645.62,191.46" style="stroke:#181818;stroke-width:1.0;"/><text fill="#000000" font-family="sans-serif" font-size="13" lengthAdjust="spacing" textLength="52.0508" x="2575.71" y="184.5269">extends</text></g><!--SRC=[bP8nJiKm38PtJk7nCJmEmC101H8hJsBtIunaaIPLd4XSYH5nX5uCfofj4_KXs2BxzsVdjpl7v1F1yNW7XouIHZ1P8tXzrMrJJvuDQr98UFpoJVQPJ1uebkBWKqIXyRCbl524dYmRx3KOf4MWfAdze1eRzeePtZWfmqj6joCuXwHq1H_kinXS0t3JAE0Mw3sHjx9egz6MWZgwgNfab-B_oqhIKaBdIFIn5VwXUXvrYC5ceqabgDkXWBB7-NU__hRoxAIuo6UEFG6wOgvQTyeQW4X6fuH-_B0BSaT-YVnWEJNc0FbvWzgaGs_8uRHJcR23cSvgzQ1UzgL6irHlxvNr97uQMomTDIh1erfTSMVnYlm6]--></g></svg>